<?xml version="1.0" encoding="utf-8"?>
<!-- Generator: Adobe Illustrator 23.1.0, SVG Export Plug-In . SVG Version: 6.00 Build 0)  -->
<svg version="1.1" id="Layer_1" xmlns="http://www.w3.org/2000/svg" xmlns:xlink="http://www.w3.org/1999/xlink" x="0px" y="0px"
	 viewBox="0 0 19 11.6" style="enable-background:new 0 0 19 11.6;" xml:space="preserve">
<style type="text/css">
	.st0{enable-background:new    ;}
	.st1{fill:#BABABA;}
</style>
<g class="st0">
	<path class="st1" d="M1.2,1.2c0.3,0,0.6-0.1,1-0.1c0.6,0,1.1,0.1,1.4,0.4C4,1.8,4.2,2.2,4.2,2.8c0,0.6-0.2,1.1-0.6,1.4
		C3.3,4.5,2.8,4.6,2.1,4.6c-0.4,0-0.7,0-0.9,0V1.2z M2,4c0.1,0,0.2,0,0.3,0C3,4,3.4,3.6,3.4,2.8c0-0.7-0.4-1.1-1.1-1.1
		c-0.2,0-0.3,0-0.3,0V4z"/>
	<path class="st1" d="M6.7,3.1H5.5v0.8h1.4v0.6H4.7V1.2h2.1v0.6H5.5v0.7h1.2V3.1z"/>
	<path class="st1" d="M7.4,3.8C7.6,3.9,7.9,4,8.3,4c0.4,0,0.5-0.1,0.5-0.4c0-0.2-0.2-0.3-0.6-0.5C7.7,3,7.3,2.6,7.3,2.2
		c0-0.6,0.5-1,1.3-1c0.4,0,0.7,0.1,0.9,0.2L9.3,1.9C9.1,1.9,8.9,1.8,8.6,1.8c-0.3,0-0.5,0.2-0.5,0.3c0,0.2,0.2,0.3,0.6,0.5
		c0.6,0.2,0.9,0.5,0.9,1c0,0.6-0.4,1-1.4,1c-0.4,0-0.8-0.1-1-0.2L7.4,3.8z"/>
	<path class="st1" d="M10.9,1.2v3.4h-0.8V1.2H10.9z"/>
	<path class="st1" d="M14.3,4.4c-0.2,0.1-0.7,0.2-1.1,0.2c-0.6,0-1.1-0.2-1.4-0.5c-0.3-0.3-0.5-0.7-0.5-1.2c0-1.1,0.8-1.8,1.9-1.8
		c0.4,0,0.8,0.1,0.9,0.2l-0.2,0.6c-0.2-0.1-0.4-0.1-0.8-0.1c-0.6,0-1.1,0.4-1.1,1.1c0,0.7,0.4,1.1,1.1,1.1c0.2,0,0.3,0,0.4-0.1V3.2
		h-0.5V2.6h1.3V4.4z"/>
	<path class="st1" d="M14.9,4.6V1.2h0.9l0.7,1.2c0.2,0.4,0.4,0.8,0.6,1.2h0C17,3.1,17,2.7,17,2.2v-1h0.7v3.4h-0.8l-0.7-1.3
		c-0.2-0.4-0.4-0.8-0.6-1.2l0,0c0,0.4,0,0.9,0,1.5v1H14.9z"/>
	<path class="st1" d="M2.7,7.2v1.3h1.3V7.2h0.8v3.4H3.9V9.2H2.7v1.4H1.9V7.2H2.7z"/>
	<path class="st1" d="M8.4,8.8c0,1.1-0.7,1.8-1.7,1.8c-1,0-1.6-0.8-1.6-1.7c0-1,0.6-1.8,1.6-1.8C7.9,7.1,8.4,7.9,8.4,8.8z M6,8.9
		C6,9.6,6.3,10,6.8,10c0.5,0,0.8-0.5,0.8-1.1c0-0.6-0.3-1.1-0.8-1.1C6.3,7.7,6,8.2,6,8.9z"/>
	<path class="st1" d="M9.7,7.2v1.9c0,0.6,0.2,0.9,0.6,0.9c0.4,0,0.6-0.3,0.6-0.9V7.2h0.8v1.9c0,1-0.5,1.5-1.4,1.5
		c-0.9,0-1.4-0.5-1.4-1.5V7.2H9.7z"/>
	<path class="st1" d="M12.4,9.8c0.2,0.1,0.5,0.2,0.8,0.2c0.4,0,0.5-0.1,0.5-0.4c0-0.2-0.2-0.3-0.6-0.5c-0.6-0.2-0.9-0.5-0.9-1
		c0-0.6,0.5-1,1.3-1c0.4,0,0.7,0.1,0.9,0.2l-0.2,0.6c-0.1-0.1-0.4-0.2-0.7-0.2c-0.3,0-0.5,0.2-0.5,0.3c0,0.2,0.2,0.3,0.6,0.5
		c0.6,0.2,0.9,0.5,0.9,1c0,0.6-0.4,1-1.4,1c-0.4,0-0.8-0.1-1-0.2L12.4,9.8z"/>
	<path class="st1" d="M17.1,9.1h-1.2v0.8h1.4v0.6H15V7.2h2.1v0.6h-1.3v0.7h1.2V9.1z"/>
</g>
</svg>
